<?xml version="1.0" standalone="no"?>
<!DOCTYPE svg PUBLIC "-//W3C//DTD SVG 20010904//EN"
 "http://www.w3.org/TR/2001/REC-SVG-20010904/DTD/svg10.dtd">
<svg version="1.0" xmlns="http://www.w3.org/2000/svg"
 width="260.000000pt" height="260.000000pt" viewBox="0 0 260.000000 260.000000"
 preserveAspectRatio="xMidYMid meet">
<metadata>
Created by potrace 1.14, written by Peter Selinger 2001-2017
</metadata>
<g transform="translate(0.000000,260.000000) scale(0.100000,-0.100000)"
fill="#000000" stroke="none">
<path d="M1037 2494 c-401 -62 -722 -297 -906 -661 -24 -49 -41 -97 -41 -117
0 -34 1 -35 47 -41 89 -10 198 -46 268 -87 72 -43 208 -172 377 -359 100 -111
169 -161 256 -185 87 -24 118 -14 160 56 100 168 118 368 45 525 -70 153 -23
311 115 393 42 24 57 27 137 27 93 0 135 -14 190 -62 74 -65 113 -174 96 -267
-15 -82 -43 -125 -123 -192 -95 -78 -199 -208 -250 -312 -36 -72 -42 -93 -46
-165 -4 -78 -3 -85 22 -114 64 -76 85 -195 50 -295 -33 -99 -132 -172 -249
-184 -90 -9 -158 20 -241 102 -35 36 -88 79 -117 98 -138 87 -335 138 -588
152 l-122 7 37 -69 c105 -200 285 -379 496 -493 150 -80 391 -141 561 -141
161 0 353 46 514 124 282 136 503 381 608 673 l26 72 -62 -2 c-81 -3 -143 16
-202 61 -172 132 -145 397 50 493 61 30 70 31 149 27 l85 -4 -6 30 c-11 59
-65 201 -106 281 -81 155 -228 322 -378 428 -85 60 -252 140 -349 167 -175 48
-340 60 -503 34z"/>
<path d="M2180 1448 c-55 -30 -100 -98 -107 -162 -8 -64 31 -145 88 -183 37
-24 52 -28 114 -28 62 0 77 4 114 28 49 32 91 110 91 168 0 53 -46 136 -92
167 -58 38 -147 42 -208 10z"/>
</g>
</svg>
